<mxfile host="app.diagrams.net" modified="2020-12-06T06:23:49.140Z" agent="5.0 (Windows NT 10.0; Win64; x64) AppleWebKit/537.36 (KHTML, like Gecko) Chrome/80.0.3987.100 Safari/537.36" etag="-4aHBNVvysn63tZw5tJR" version="13.6.6" type="github">
  <diagram id="31b32b95-0358-9bc7-6ba0-a27c054ed1a7" name="Page-1">
    <mxGraphModel dx="981" dy="526" grid="1" gridSize="10" guides="1" tooltips="1" connect="1" arrows="1" fold="1" page="1" pageScale="1" pageWidth="827" pageHeight="1169" background="#ffffff" math="0" shadow="0">
      <root>
        <object label="" id="0">
          <mxCell />
        </object>
        <mxCell id="1" parent="0" />
        <mxCell id="wKh0Vwg9ZUlQV5vH7zDD-188" value="Portal" style="rounded=0;whiteSpace=wrap;html=1;" vertex="1" parent="1">
          <mxGeometry x="341" y="105" width="629" height="20" as="geometry" />
        </mxCell>
        <mxCell id="wKh0Vwg9ZUlQV5vH7zDD-189" value="APP" style="text;html=1;strokeColor=none;fillColor=none;align=center;verticalAlign=middle;whiteSpace=wrap;rounded=0;fontSize=14;fontStyle=1" vertex="1" parent="1">
          <mxGeometry x="220" y="105" width="40" height="20" as="geometry" />
        </mxCell>
        <mxCell id="wKh0Vwg9ZUlQV5vH7zDD-197" value="视图层" style="text;html=1;strokeColor=none;fillColor=none;align=center;verticalAlign=middle;whiteSpace=wrap;rounded=0;fontSize=14;fontStyle=1" vertex="1" parent="1">
          <mxGeometry x="218" y="177.5" width="49" height="20" as="geometry" />
        </mxCell>
        <mxCell id="wKh0Vwg9ZUlQV5vH7zDD-237" value="" style="endArrow=none;dashed=1;html=1;strokeWidth=2;fontSize=7;" edge="1" parent="1">
          <mxGeometry width="50" height="50" relative="1" as="geometry">
            <mxPoint x="200" y="230" as="sourcePoint" />
            <mxPoint x="970" y="230" as="targetPoint" />
          </mxGeometry>
        </mxCell>
        <mxCell id="wKh0Vwg9ZUlQV5vH7zDD-238" value="" style="endArrow=none;dashed=1;html=1;strokeWidth=2;fontSize=7;" edge="1" parent="1">
          <mxGeometry width="50" height="50" relative="1" as="geometry">
            <mxPoint x="200.5" y="330" as="sourcePoint" />
            <mxPoint x="970.5" y="330" as="targetPoint" />
          </mxGeometry>
        </mxCell>
        <mxCell id="wKh0Vwg9ZUlQV5vH7zDD-239" value="蓝牙连接" style="rounded=0;whiteSpace=wrap;html=1;fontSize=7;" vertex="1" parent="1">
          <mxGeometry x="341" y="270" width="89" height="30" as="geometry" />
        </mxCell>
        <mxCell id="wKh0Vwg9ZUlQV5vH7zDD-244" value="socket传输" style="rounded=0;whiteSpace=wrap;html=1;fontSize=7;" vertex="1" parent="1">
          <mxGeometry x="450" y="270" width="89" height="30" as="geometry" />
        </mxCell>
        <mxCell id="wKh0Vwg9ZUlQV5vH7zDD-245" value="参数查询/修改" style="rounded=0;whiteSpace=wrap;html=1;fontSize=7;" vertex="1" parent="1">
          <mxGeometry x="560" y="270" width="89" height="30" as="geometry" />
        </mxCell>
        <mxCell id="wKh0Vwg9ZUlQV5vH7zDD-246" value="黑体校正" style="rounded=0;whiteSpace=wrap;html=1;fontSize=7;" vertex="1" parent="1">
          <mxGeometry x="670" y="270" width="89" height="30" as="geometry" />
        </mxCell>
        <mxCell id="wKh0Vwg9ZUlQV5vH7zDD-247" value="功能切换" style="rounded=0;whiteSpace=wrap;html=1;fontSize=7;" vertex="1" parent="1">
          <mxGeometry x="780" y="270" width="89" height="30" as="geometry" />
        </mxCell>
        <mxCell id="wKh0Vwg9ZUlQV5vH7zDD-248" value="人脸批量注册" style="rounded=0;whiteSpace=wrap;html=1;fontSize=7;" vertex="1" parent="1">
          <mxGeometry x="890" y="270" width="80" height="30" as="geometry" />
        </mxCell>
        <mxCell id="wKh0Vwg9ZUlQV5vH7zDD-249" value="逻辑层" style="text;html=1;strokeColor=none;fillColor=none;align=center;verticalAlign=middle;whiteSpace=wrap;rounded=0;fontSize=14;fontStyle=1" vertex="1" parent="1">
          <mxGeometry x="218" y="275" width="55" height="20" as="geometry" />
        </mxCell>
        <mxCell id="wKh0Vwg9ZUlQV5vH7zDD-269" value="" style="endArrow=none;dashed=1;html=1;strokeWidth=2;fontSize=7;" edge="1" parent="1">
          <mxGeometry width="50" height="50" relative="1" as="geometry">
            <mxPoint x="201" y="140" as="sourcePoint" />
            <mxPoint x="971" y="140" as="targetPoint" />
          </mxGeometry>
        </mxCell>
        <mxCell id="wKh0Vwg9ZUlQV5vH7zDD-198" value="&lt;font color=&quot;#4d4d4d&quot;&gt;&lt;b&gt;蓝牙设备列表页&lt;/b&gt;&lt;/font&gt;" style="rounded=0;whiteSpace=wrap;html=1;fontSize=14;dashed=1;verticalAlign=middle;" vertex="1" parent="1">
          <mxGeometry x="341" y="165" width="119" height="45" as="geometry" />
        </mxCell>
        <mxCell id="wKh0Vwg9ZUlQV5vH7zDD-270" value="&lt;font color=&quot;#4d4d4d&quot;&gt;&lt;b&gt;参数设置页&lt;/b&gt;&lt;/font&gt;" style="rounded=0;whiteSpace=wrap;html=1;fontSize=14;dashed=1;verticalAlign=middle;" vertex="1" parent="1">
          <mxGeometry x="510" y="165" width="119" height="45" as="geometry" />
        </mxCell>
        <mxCell id="wKh0Vwg9ZUlQV5vH7zDD-271" value="&lt;font color=&quot;#4d4d4d&quot;&gt;&lt;b&gt;黑体校正页&lt;/b&gt;&lt;/font&gt;" style="rounded=0;whiteSpace=wrap;html=1;fontSize=14;dashed=1;verticalAlign=middle;" vertex="1" parent="1">
          <mxGeometry x="680" y="165" width="119" height="45" as="geometry" />
        </mxCell>
        <mxCell id="wKh0Vwg9ZUlQV5vH7zDD-272" value="&lt;font color=&quot;#4d4d4d&quot;&gt;&lt;b&gt;功能切换页&lt;/b&gt;&lt;/font&gt;" style="rounded=0;whiteSpace=wrap;html=1;fontSize=14;dashed=1;verticalAlign=middle;" vertex="1" parent="1">
          <mxGeometry x="851" y="165" width="119" height="45" as="geometry" />
        </mxCell>
      </root>
    </mxGraphModel>
  </diagram>
</mxfile>
